<svg xmlns="http://www.w3.org/2000/svg" viewBox="0 0 128 128" role="img" aria-label="GV AMD Detector icon">
  <defs>
    <linearGradient id="bg" x1="18" y1="12" x2="112" y2="118" gradientUnits="userSpaceOnUse">
      <stop offset="0" stop-color="#1d4ed8"/>
      <stop offset="0.52" stop-color="#0f172a"/>
      <stop offset="1" stop-color="#7c3aed"/>
    </linearGradient>
    <linearGradient id="pulse" x1="28" y1="30" x2="100" y2="98" gradientUnits="userSpaceOnUse">
      <stop offset="0" stop-color="#67e8f9"/>
      <stop offset="1" stop-color="#34d399"/>
    </linearGradient>
  </defs>
  <rect width="128" height="128" rx="28" fill="url(#bg)"/>
  <circle cx="64" cy="64" r="45" fill="none" stroke="#e0f2fe" stroke-opacity=".18" stroke-width="4"/>
  <circle cx="64" cy="64" r="30" fill="none" stroke="#e0f2fe" stroke-opacity=".18" stroke-width="4"/>
  <path d="M37 43c3-5 8-7 13-4l8 11c2 3 1 6-1 8l-4 4c5 8 12 14 21 18l4-5c2-2 6-3 9-1l11 7c4 3 4 9 1 13-4 7-11 10-19 8-15-3-29-11-40-23S24 54 27 39c2-8 5-13 10-16Z" fill="url(#pulse)"/>
  <path d="M79 34c10 3 17 10 20 20M82 20c17 5 29 17 34 34" fill="none" stroke="#f8fafc" stroke-linecap="round" stroke-width="7" opacity=".9"/>
  <path d="M29 92h18l7-13 11 25 9-20h25" fill="none" stroke="#fbbf24" stroke-linecap="round" stroke-linejoin="round" stroke-width="6"/>
</svg>
